# xmcd CD database file
#
# Track frame offsets:
#	150
#	12707
#	39115
#	49537
#	64255
#	67637
#	73417
#	76087
#	79792
#	86095
#	93747
#	115087
#	145215
#	155332
#	164100
#	175925
#
# Disc length: 2580 seconds
#
# Revision: 0
# Processed by: cddbd v1.5.2PL0 Copyright (c) Steve Scherf et al.
# Submitted via: CDex 1.70beta2
#
DISCID=d30a1210
DTITLE=世界宗教音楽ライブラリー - ロシア正教会／亡命者たちの祈り
DYEAR=1989
DGENRE=World
TTITLE0=キリストは死者の中から
TTITLE1=翌朝、マリアと
TTITLE2=キリストは死者の中から
TTITLE3=おお主にて喜び／神よ、我ら汝によろこび
TTITLE4=おお、来たりておがまん
TTITLE5=長き命を（イスポラ・エティ・デスポタ）
TTITLE6=キリストは死者の中から
TTITLE7=汝は墓にくだり
TTITLE8=キリストによりて受洗せる者
TTITLE9=この日こそ
TTITLE10=ヘルヴィム賛歌
TTITLE11=平和の恵み
TTITLE12=天使は叫べリ
TTITLE13=連祷
TTITLE14=主の祈り
TTITLE15=主が復活し
EXTD=YEAR: 1989
EXTT0=
EXTT1=
EXTT2=
EXTT3=
EXTT4=
EXTT5=
EXTT6=
EXTT7=
EXTT8=
EXTT9=
EXTT10=
EXTT11=
EXTT12=
EXTT13=
EXTT14=
EXTT15=
PLAYORDER=
